<svg width="43" height="29" viewBox="0 0 43 29" fill="none" xmlns="http://www.w3.org/2000/svg">
<path d="M21.5 0.4375C12.125 0.4375 4.11875 6.26875 0.875 14.5C4.11875 22.7312 12.125 28.5625 21.5 28.5625C30.875 28.5625 38.8812 22.7312 42.125 14.5C38.8812 6.26875 30.875 0.4375 21.5 0.4375ZM21.5 23.875C16.325 23.875 12.125 19.675 12.125 14.5C12.125 9.325 16.325 5.125 21.5 5.125C26.675 5.125 30.875 9.325 30.875 14.5C30.875 19.675 26.675 23.875 21.5 23.875ZM21.5 8.875C18.3875 8.875 15.875 11.3875 15.875 14.5C15.875 17.6125 18.3875 20.125 21.5 20.125C24.6125 20.125 27.125 17.6125 27.125 14.5C27.125 11.3875 24.6125 8.875 21.5 8.875Z" fill="white"/>
</svg>
