<svg width="28" height="20" viewBox="0 0 28 20" fill="none" xmlns="http://www.w3.org/2000/svg">
<path d="M26.5719 3.72764C26.4225 3.17267 26.13 2.66668 25.7236 2.26029C25.3172 1.85391 24.8112 1.56139 24.2563 1.41201C22.2125 0.858887 14 0.858887 14 0.858887C14 0.858887 5.7875 0.858887 3.74375 1.41201C3.18879 1.56139 2.6828 1.85391 2.27641 2.26029C1.87003 2.66668 1.57751 3.17267 1.42813 3.72764C1.04651 5.81195 0.861328 7.92747 0.875004 10.0464C0.861328 12.1653 1.04651 14.2808 1.42813 16.3651C1.57751 16.9201 1.87003 17.4261 2.27641 17.8325C2.6828 18.2389 3.18879 18.5314 3.74375 18.6808C5.7875 19.2339 14 19.2339 14 19.2339C14 19.2339 22.2125 19.2339 24.2563 18.6808C24.8112 18.5314 25.3172 18.2389 25.7236 17.8325C26.13 17.4261 26.4225 16.9201 26.5719 16.3651C26.9535 14.2808 27.1387 12.1653 27.125 10.0464C27.1387 7.92747 26.9535 5.81195 26.5719 3.72764ZM11.375 13.9839V6.10889L18.1906 10.0464L11.375 13.9839Z" fill="#222222"/>
</svg>
