<svg width="24" height="24" viewBox="0 0 24 24" fill="none" xmlns="http://www.w3.org/2000/svg">
<path d="M12 8.1411C9.84963 8.1411 8.09474 9.89598 8.09474 12.0464C8.09474 14.1968 9.84963 15.9516 12 15.9516C14.1504 15.9516 15.9053 14.1968 15.9053 12.0464C15.9053 9.89598 14.1504 8.1411 12 8.1411ZM23.7129 12.0464C23.7129 10.4292 23.7276 8.82665 23.6367 7.21239C23.5459 5.33739 23.1182 3.67333 21.7471 2.30223C20.3731 0.928209 18.7119 0.503404 16.8369 0.412584C15.2197 0.321764 13.6172 0.336412 12.0029 0.336412C10.3858 0.336412 8.78322 0.321764 7.16896 0.412584C5.29396 0.503404 3.6299 0.931139 2.25881 2.30223C0.884783 3.67626 0.459978 5.33739 0.369158 7.21239C0.278337 8.82958 0.292986 10.4321 0.292986 12.0464C0.292986 13.6606 0.278337 15.2661 0.369158 16.8804C0.459978 18.7554 0.887712 20.4194 2.25881 21.7905C3.63283 23.1645 5.29396 23.5893 7.16896 23.6802C8.78615 23.771 10.3887 23.7563 12.0029 23.7563C13.6201 23.7563 15.2227 23.771 16.8369 23.6802C18.7119 23.5893 20.376 23.1616 21.7471 21.7905C23.1211 20.4165 23.5459 18.7554 23.6367 16.8804C23.7305 15.2661 23.7129 13.6636 23.7129 12.0464ZM12 18.0552C8.67482 18.0552 5.99123 15.3716 5.99123 12.0464C5.99123 8.72118 8.67482 6.03758 12 6.03758C15.3252 6.03758 18.0088 8.72118 18.0088 12.0464C18.0088 15.3716 15.3252 18.0552 12 18.0552ZM18.2549 7.19481C17.4785 7.19481 16.8516 6.56786 16.8516 5.79149C16.8516 5.01512 17.4785 4.38817 18.2549 4.38817C19.0313 4.38817 19.6582 5.01512 19.6582 5.79149C19.6585 5.97584 19.6223 6.15843 19.5519 6.32879C19.4814 6.49915 19.3781 6.65395 19.2477 6.7843C19.1174 6.91466 18.9626 7.01802 18.7922 7.08846C18.6218 7.1589 18.4393 7.19504 18.2549 7.19481Z" fill="#222222" fill-opacity="0.9"/>
</svg>
